<?xml version="1.0" encoding="UTF-8"?>
<svg id="Layer_1" data-name="Layer 1" xmlns="http://www.w3.org/2000/svg" xmlns:xlink="http://www.w3.org/1999/xlink" viewBox="0 0 595.28 467.34">
  <defs>
    <style>
      .cls-1 {
        fill: none;
      }

      .cls-2 {
        clip-path: url(#clippath);
      }

      .cls-3 {
        fill: #f7a428;
      }

      .cls-4 {
        fill: #d2d2d4;
      }

      .cls-5 {
        fill: #231f20;
      }

      .cls-6 {
        fill: #0f8b46;
      }

      .cls-7 {
        fill: #3653a2;
      }

      .cls-8 {
        fill: #613a19;
      }
    </style>
    <clipPath id="clippath">
      <rect class="cls-1" width="595.28" height="467.34"/>
    </clipPath>
  </defs>
  <g class="cls-2">
    <path class="cls-8" d="M102.27,208c-.84-.72-2.05,1.15-2.59,2.38-1.65,1.64-3.29,3.26-4.95,4.88-6.54,6.51-13.08,13-19.62,19.51-1.61,1.7-3.2,3.41-4.8,5.11l-.03,.03c-1.21,1.36-5.15,3.89-1.66,4.38,8.34,1.13,16.98,.2,25.49-.07,.29-.02,.52-1.79,.8-2.74,2.25-9.15,4.49-18.29,6.75-27.42,1.54-1.92,2.85-4.15,.61-6.07"/>
    <path class="cls-6" d="M285.36,244.71h-44.04c-7.36,0-14.87-.95-22.03,.21-12.77,2.1-20.54-3.28-25.83-14.11-.82-1.69-2.03-3.21-3.12-4.79-7.16-10.36-11.54-24.8-28.96-18.36-.16-1.9-.3-2.31-.2-2.36,12.88-7.65,12.65-19.93,12.06-32.68-.51-11.13-.12-22.29-.12-35.77,37.27,36.83,72.73,72.91,112.23,107.86"/>
    <path class="cls-3" d="M540.84,238.16c-8.64-8.64-17.15-17.42-25.91-25.92-16.67-17.01-33.34-34.03-49.99-51.04-.7,1.1-1.46,2.15-2.08,3.28-1.1,1.98-3.11,2.18-4.87,2.07-1.74-.13-1.31-1.98-1.33-3.21-.03-3.46,1.66-3.36,3.97-1.85,.31-1.2,.64-2.41,.95-3.61-8.38-9.05-16.77-18.1-25.16-27.16-2.39,2.2-1.59,4.21-1.59,5.97-.07,17.93,.11,35.88-.11,53.83-.07,4.72,1.33,8.06,4.72,11.39,14.13,13.88,27.98,28.06,41.95,42.13,1.93,3.02,4.92,1.44,7.36,1.46,16.33,.16,32.65,.08,48.98,.08,1.92,0,4.31,1.07,5.66-.77,.1-.13,.2-.3,.28-.48,.15-.28,.25-.54,.29-.8,.59-2.36-1.64-3.9-3.1-5.36m-95.48-37.82c-1.74-2.11-5.56-2.62-4.85-6.36,.21-1.15,1.3-2.02,2.33-1.44,2.89,1.61,3.31,4.43,2.52,7.8m9.64-12.03c.36,3.67,.59,5.93,.8,8.21-2.85-2.36-2.95-4.54-.8-8.21m12.46-16.8c-.26,2.36-2.69,3.11-4.95,3.64-1.25-1.05-4.38,.1-4.08-2.56,.26-2.31,2.79-3.2,4.93-3.23,1.56-.02,4.46-.92,4.1,2.15"/>
    <path class="cls-7" d="M325.7,244.27h110.97c-12.2-13.82-18.36-31.03-38.6-37.26,4.33-1.16,6.2-1.67,8.67-2.34-6.62-8.85-12.61-17.29-19.1-25.31-2.84-3.51-2.57-5.72,.43-8.8,5.51-5.65,10.39-11.92,16-17.47,3.33-3.31,2.9-5.16-.26-8.34-26.13-26.29-52.13-52.73-78.02-79.25-5.8-5.93-11.06-12.41-16.57-18.64-1.11,.61-2.21,1.21-3.31,1.82v89.53h-40.16c2.98,3.46,4.44,5.75,7.03,6.88,1.59,1.85,3.07,3.79,4.79,5.51,21.18,21.24,42.21,42.62,63.73,63.5,5.05,4.9,4.7,7.72,.07,12.28-5.48,5.39-11.15,10.77-15.65,17.9m98.04-10.83c1.21,1.49,2.44,3.92,.92,4.8-2.41,1.38-2.77-2.08-4.25-3.18-2-.97-4-1.92-6-2.88,3.38-.39,6.75-1.72,9.33,1.26m-10.13-8.33c-3.77-1.65-8.16-1.08-10.28-5.98q7.1-1.53,10.28,5.98m-3.16,9.87c.67,1.46-.08,3.1-1.59,3.07-4.36-.11-2.65-5.56-8.11-6.65,7.16-2.77,8.36,.66,9.7,3.59m-28.16-50.32c.92-.07,1.88,.57,2.56,.79,.47,1.72-.46,1.97-1.21,1.97-1.03,0-2.66-.02-2.97-.59-.56-1.03,.59-2.07,1.62-2.16m-31.21-78.17c1.92-1.18,3.36,.49,6.75,1.15-3.46,1.38-4.82,3.31-6.72,1.53-.85-.79-1.11-2.02-.03-2.67"/>
    <path class="cls-5" d="M27.51,319.12c0-28.04,21.53-48.11,50.51-48.11,16.08,0,29.51,5.85,38.28,16.48l-13.82,12.76c-6.25-7.18-14.09-10.9-23.39-10.9-17.41,0-29.77,12.23-29.77,29.77s12.36,29.77,29.77,29.77c9.31,0,17.15-3.72,23.39-11.03l13.82,12.76c-8.77,10.77-22.2,16.61-38.41,16.61-28.84,0-50.37-20.07-50.37-48.11"/>
    <polygon class="cls-5" points="174.51 332.67 174.51 365.64 152.98 365.64 152.98 332.41 116.96 272.6 139.82 272.6 164.67 313.93 189.53 272.6 210.66 272.6 174.51 332.67"/>
    <path class="cls-5" d="M275.25,345.7h-43.2l-8.24,19.94h-22.06l41.47-93.04h21.27l41.6,93.04h-22.59l-8.24-19.94Zm-6.78-16.35l-14.75-35.62-14.75,35.62h29.51Z"/>
    <polygon class="cls-5" points="315.78 272.6 337.31 272.6 337.31 348.09 383.96 348.09 383.96 365.64 315.78 365.64 315.78 272.6"/>
    <polygon class="cls-5" points="468.09 348.36 468.09 365.64 396.05 365.64 396.05 272.6 466.36 272.6 466.36 289.88 417.45 289.88 417.45 310.08 460.64 310.08 460.64 326.83 417.45 326.83 417.45 348.36 468.09 348.36"/>
    <polygon class="cls-5" points="542.91 365.64 520.45 333.34 498.38 365.64 473.66 365.64 508.09 318.32 475.39 272.6 499.85 272.6 521.24 302.77 542.24 272.6 565.5 272.6 533.07 317.52 567.76 365.64 542.91 365.64"/>
    <rect class="cls-5" x="76.82" y="391.95" width="4.12" height="38.99"/>
    <polygon class="cls-5" points="130.34 391.95 130.34 430.94 126.94 430.94 101.88 399.3 101.88 430.94 97.76 430.94 97.76 391.95 101.15 391.95 126.28 423.59 126.28 391.95 130.34 391.95"/>
    <polygon class="cls-5" points="179.13 391.95 161.86 430.94 157.79 430.94 140.52 391.95 144.98 391.95 159.91 425.81 174.95 391.95 179.13 391.95"/>
    <polygon class="cls-5" points="216.44 427.37 216.44 430.94 188.86 430.94 188.86 391.95 215.6 391.95 215.6 395.51 192.99 395.51 192.99 409.38 213.15 409.38 213.15 412.89 192.99 412.89 192.99 427.37 216.44 427.37"/>
    <path class="cls-5" d="M226.51,426.2l1.62-3.17c2.78,2.73,7.74,4.74,12.87,4.74,7.3,0,10.47-3.06,10.47-6.91,0-10.7-24.01-4.12-24.01-18.55,0-5.74,4.46-10.69,14.37-10.69,4.4,0,8.97,1.28,12.09,3.45l-1.39,3.29c-3.34-2.17-7.24-3.23-10.69-3.23-7.13,0-10.31,3.17-10.31,7.07,0,10.69,24.01,4.23,24.01,18.44,0,5.74-4.57,10.64-14.54,10.64-5.85,0-11.59-2.06-14.48-5.07"/>
    <polygon class="cls-5" points="275.63 395.51 261.93 395.51 261.93 391.95 293.45 391.95 293.45 395.51 279.75 395.51 279.75 430.94 275.63 430.94 275.63 395.51"/>
    <polygon class="cls-5" points="344.63 391.95 344.63 430.94 340.68 430.94 340.68 399.75 325.36 425.98 323.41 425.98 308.09 399.91 308.09 430.94 304.14 430.94 304.14 391.95 307.54 391.95 324.47 420.86 341.24 391.95 344.63 391.95"/>
    <polygon class="cls-5" points="389.01 427.37 389.01 430.94 361.44 430.94 361.44 391.95 388.18 391.95 388.18 395.51 365.56 395.51 365.56 409.38 385.73 409.38 385.73 412.89 365.56 412.89 365.56 427.37 389.01 427.37"/>
    <polygon class="cls-5" points="435.4 391.95 435.4 430.94 432 430.94 406.94 399.3 406.94 430.94 402.82 430.94 402.82 391.95 406.21 391.95 431.34 423.59 431.34 391.95 435.4 391.95"/>
    <polygon class="cls-5" points="459.79 395.51 446.09 395.51 446.09 391.95 477.61 391.95 477.61 395.51 463.91 395.51 463.91 430.94 459.79 430.94 459.79 395.51"/>
    <path class="cls-5" d="M483.95,426.2l1.62-3.17c2.78,2.73,7.74,4.74,12.87,4.74,7.3,0,10.47-3.06,10.47-6.91,0-10.7-24.01-4.12-24.01-18.55,0-5.74,4.46-10.69,14.37-10.69,4.4,0,8.97,1.28,12.09,3.45l-1.39,3.29c-3.34-2.17-7.24-3.23-10.69-3.23-7.13,0-10.31,3.17-10.31,7.07,0,10.69,24.01,4.23,24.01,18.44,0,5.74-4.57,10.64-14.54,10.64-5.85,0-11.59-2.06-14.48-5.07"/>
    <path class="cls-4" d="M51.16,245.31l-1.08-1.09L179.26,116.98l24.99,26.96L306.36,28.37l104.74,106.66,22.63-25.2,.58,.59c42.76,44.09,85.52,88.18,128.28,132.27l-1.11,1.07c-42.57-43.9-85.14-87.79-127.71-131.69l-22.63,25.19-.57-.58L306.42,30.61l-102.13,115.61-25.06-27.05L51.16,245.31Z"/>
  </g>
</svg>